PathFileType	4	(X/Y/Z)	path1_02_0-1346.trc
DataRate	CameraRate	NumFrames	NumMarkers	Units	OrigDataRate	OrigDataStartFrame	OrigNumFrames
30	30	9	22	m	30	673	1346
Frame#	Time	Hip			RHip			RKnee			RAnkle			RBigToe			RSmallToe			RHeel			LHip			LKnee			LAnkle			LBigToe			LSmallToe			LHeel			Neck			Head			Nose			RShoulder			RElbow			RWrist			LShoulder			LElbow			LWrist		
		X1	Y1	Z1	X2	Y2	Z2	X3	Y3	Z3	X4	Y4	Z4	X5	Y5	Z5	X6	Y6	Z6	X7	Y7	Z7	X8	Y8	Z8	X9	Y9	Z9	X10	Y10	Z10	X11	Y11	Z11	X12	Y12	Z12	X13	Y13	Z13	X14	Y14	Z14	X15	Y15	Z15	X16	Y16	Z16	X17	Y17	Z17	X18	Y18	Z18	X19	Y19	Z19	X20	Y20	Z20	X21	Y21	Z21	X22	Y22	Z22
674	22.466666666666665	-1.6538703900090872	0.8162303139894627	0.25871465794336723	-1.6574375722871377	0.7932496521753182	0.3425986028902649	-1.678227024816911	0.46259941876996885	0.31002558852159423	-1.706924475051589	0.11467756405221909	0.3194996621244246	-1.5470345658322797	0.02848366091726522	0.3336496946882676	-1.5752717963025389	0.027590562064701434	0.3942358488392886	-1.7460163391405559	0.05269976613746833	0.3213542286068605	-1.6451796073912737	0.7872761673560105	0.19079885735204724	-1.6578705858564706	0.44723921930837407	0.1975124232499887	-1.6847995675725722	0.10416101746443703	0.18177706435902544	-1.5310241623337755	0.007779802135452221	0.14248705906988451	-1.5399486525941715	0.02570761971353718	0.10078768061206508	-1.753502611568801	0.035758435274161476	0.16963167360719408	-1.642792364413712	1.4511847401650544	0.22281022846185308	-1.5773170544697193	1.7167206584784287	0.26843847662448883	-1.5095649539841247	1.5819978781716681	0.2548439274099587	-1.6925778053722391	1.351751640550752	0.3724297269401968	-1.6803457257767174	1.0540158397459063	0.400347673112191	-1.5910935585027721	0.8608744796998647	0.46159640806272734	-1.6773388903180422	1.329678309317854	0.1297948776001357	-1.6671870621486349	1.0338623679822407	0.10954411133776637	-1.5570688380495021	0.8543105590343741	0.07123405606154148
675	22.5	-1.6539199641081137	0.81657105265321	0.25895910885896584	-1.6577316445968644	0.7934786067224442	0.3421029370568476	-1.6785488221736484	0.46238103780886797	0.309626913878083	-1.707077342870157	0.114392585694962	0.3189497702766283	-1.5470220053722537	0.02883360749742664	0.3333527094760737	-1.575528228316807	0.028816680224389025	0.3929537837265642	-1.7461559655637309	0.05238307556547903	0.32095080991587055	-1.644865309050032	0.7880019916991083	0.19007310289879187	-1.6544172947114308	0.4463016409875118	0.1931845933978079	-1.685597184852175	0.10406365728445185	0.18123414637342072	-1.5310039257558739	0.007771917457189938	0.13942268463662116	-1.54179912300689	0.025148865055251792	0.1004237937538317	-1.7533145325683765	0.03704270192411457	0.16783608705871916	-1.6430034763650203	1.4509639279484254	0.22326552832871654	-1.5774968903744597	1.7171241772159103	0.2684826468684362	-1.509784609993765	1.5822983463771962	0.2552139424687351	-1.6932100963899366	1.3515884823817115	0.3726431213237014	-1.68036293926229	1.0537870361774113	0.40050181759760767	-1.5912675689412188	0.8609486078091333	0.4619424348446317	-1.6771093948334397	1.3296341743629077	0.13048311956133996	-1.6667856398748062	1.0340151704617098	0.10912532557161793	-1.5570624320181783	0.85447405478087	0.07128184736700603
676	22.53333333333333	-1.654153671579655	0.8167777206403498	0.2592832270138658	-1.6581459354900399	0.7938582349750589	0.3416714834374937	-1.6788545294507444	0.46234349574880446	0.3091147709397377	-1.7071182193884928	0.11410387755596985	0.3185783764343326	-1.546873280028255	0.028981404571712582	0.3330779289748089	-1.5754675390298045	0.029560221803188007	0.39236325927814525	-1.7461243023541524	0.0519719981880678	0.3208007530801277	-1.6448710321759406	0.7887440378755063	0.18918945620440628	-1.6521633555542008	0.4459586555247313	0.19010190802681234	-1.6869186122096476	0.10390456783408895	0.1802094909488559	-1.5309280708314028	0.007946626035998657	0.13674410917857943	-1.5439577027383289	0.02450789596068422	0.09962381391308618	-1.7533547820244626	0.03814697350423953	0.1662074958766622	-1.643169463778612	1.4507983211542383	0.22353022818413296	-1.5775449496681293	1.7175612612278741	0.2683146712289911	-1.5100014773261554	1.582697336208906	0.25537335737083355	-1.693595031585575	1.3514773766611108	0.3727459271770884	-1.6804941412160481	1.0535734164167738	0.4005004822680279	-1.5914036669637284	0.8608466176977176	0.46213356825061036	-1.676713501784657	1.330443737305583	0.12666550369754634	-1.666541446883259	1.034244872389244	0.10884041682812196	-1.557028519302804	0.8546498646554284	0.07135835009497328
677	22.566666666666663	-1.6545069739103697	0.8168341335559962	0.2596180861260649	-1.6585956095919112	0.7942821918277786	0.3413710541649371	-1.6791087936233497	0.4624883480332413	0.3085867476748411	-1.7069790703355145	0.11390485406667605	0.3183530508257987	-1.5465771043134748	0.029044535219494967	0.3328591533277617	-1.5751390027496082	0.02997751383812582	0.39237220010967916	-1.7459198627826404	0.0515645952032931	0.3209234490814043	-1.6452479221167962	0.7893653952269515	0.18834871600979206	-1.651662294772195	0.4464011505510377	0.18902501803838276	-1.688522999706932	0.10371906564830179	0.17880741273161885	-1.5307813523314635	0.008341672434580307	0.13470597773731333	-1.5460248509145005	0.023953484614501207	0.09847786089382181	-1.7535369568492507	0.03887849594425407	0.1649772447461778	-1.6432490474624404	1.450685784055769	0.22363217422390788	-1.5772769835043037	1.7177413647703217	0.26759036766495037	-1.5101964953723956	1.5830741089849096	0.2551354549624277	-1.6936784048341442	1.3514030922628528	0.3727774903097141	-1.6807331615009178	1.0534455696332394	0.4003874838964804	-1.59149762926265	0.8606205618031787	0.4621637876297459	-1.676177295057649	1.332005077472257	0.11904323071481336	-1.6665169217909754	1.0345796229349602	0.10876154495035295	-1.5570219154598208	0.8548227202425017	0.07149863999145413
678	22.6	-1.6548711951959323	0.8167971947996342	0.2598757537536731	-1.6589514125482756	0.7947214392873001	0.3411397060450523	-1.6792465215813226	0.4628215520989448	0.3081125225902593	-1.706622405022868	0.11389307890171145	0.3182339107210871	-1.5462061514422665	0.0291033172477069	0.3326369949867728	-1.5746603821830685	0.030177355978709946	0.39271031746568863	-1.7455747450160555	0.05127232783028785	0.32124996985070625	-1.6458672257335538	0.7898698587997031	0.1876467404792134	-1.6526049267894523	0.4475046878814234	0.18975390949124415	-1.6898642763889797	0.10364806495479542	0.17748028164250604	-1.5305469110688885	0.00890926457479049	0.13325013661592056	-1.5474672742609572	0.02367193784482517	0.09736223698720105	-1.7537568445705674	0.039169096401031354	0.1642855644918068	-1.643252042055163	1.4506062657815326	0.22360806341034056	-1.5763602827514078	1.7173011474899404	0.2663630000510729	-1.5103458618111274	1.5833684395523646	0.25472869650246305	-1.6935192176473448	1.3513463998559017	0.37274713079278127	-1.6810300554166793	1.0534497831298988	0.4001854952988384	-1.5915400325387514	0.860330537945802	0.46208653646179687	-1.675620555541851	1.333986166621109	0.10959414844062357	-1.6667186108607983	1.035021871894775	0.10894125861405225	-1.5570483114576408	0.855040234933423	0.07166308325401098
679	22.633333333333333	-1.6550969227779235	0.8167407755908519	0.2600070719932615	-1.6590428976662777	0.7951466655631497	0.3409053449983139	-1.6792005793708578	0.46327618087322375	0.3077497499196286	-1.7061014555037664	0.11409927175355408	0.31818590658850504	-1.5459114129235292	0.029083201750980236	0.33232432623316965	-1.5742091096205197	0.03015943950137544	0.3930334335003477	-1.7451449386070728	0.05120079682958289	0.32166606462171127	-1.6464674293512034	0.790272412449586	0.18713212718389552	-1.654250721601475	0.44891574786063204	0.19158498995352366	-1.690178833667347	0.10391672626260604	0.17696352259963774	-1.530195757038336	0.009492208110360095	0.1323164269824388	-1.547660665486311	0.023870127025858664	0.09689685184623577	-1.753901618717249	0.03899068708151547	0.16428769376642735	-1.643209696474077	1.4505410926959437	0.22349335897944947	-1.574479823832867	1.7157994266420606	0.26520519537690473	-1.5104116251341535	1.5835700415588172	0.2546904800056357	-1.6932305719462597	1.3512705781536383	0.3726525242806099	-1.681269331094124	1.0535723440110731	0.39990607491055263	-1.5915157773380717	0.8600093840106321	0.46195746373084395	-1.6752695097442425	1.3357260363744077	0.10174810233097777	-1.6671013886226873	1.0355370512212618	0.10938464745976255	-1.5570776611212451	0.8553342296168697	0.07175389820186626
680	22.666666666666668	-1.6550664711794278	0.8167011312206799	0.2600246568504711	-1.658731959152181	0.7954725144862659	0.3406599629765033	-1.6789401720482793	0.4637100527292524	0.30755215259474145	-1.705570822738834	0.11445928938636744	0.31816750677206146	-1.5458227840598318	0.028825938454618016	0.3318802153218002	-1.5739399570120935	0.029884274679916167	0.39305770766759707	-1.7447355644953084	0.05139626571156522	0.32203816512216404	-1.646819604280903	0.790528885188105	0.1868492555140358	-1.6561611807578778	0.4503320451576881	0.194003848944541	-1.689102286208154	0.10462640272695962	0.17764766523071135	-1.529729919546103	0.009913908130643996	0.13188380785675896	-1.5463846200039364	0.024612607900863424	0.09737777550050489	-1.7538850225217149	0.038356967966806516	0.1651014025120802	-1.643136237139055	1.450489758206729	0.2233275552756064	-1.5715282108152626	1.7128809830522944	0.26456063409070396	-1.5103530213752745	1.5836889910579757	0.25536165940193034	-1.6928946282829798	1.351112012163051	0.37251461337634884	-1.681285812186797	1.0537174622719394	0.3995927700173105	-1.5914217574976444	0.8596629026775594	0.4618105858264952	-1.6753483417135395	1.3365558190000772	0.09876882846766277	-1.6675864323095442	1.0360797339518089	0.10998876109549814	-1.5570824321251682	0.8556478389590108	0.0716822181488988
681	22.7	-1.6547717094353038	0.8166903261609477	0.2599768602877984	-1.6580176051515394	0.7956071345173097	0.3404461658757891	-1.67848278507943	0.4639978247477511	0.30752974292506163	-1.7052075750100815	0.11484151681672508	0.3181476854988778	-1.5459456620051901	0.028298736355856852	0.3313580280389726	-1.5738923123859843	0.02938833868551547	0.39270700942545445	-1.7444935703935762	0.051788822090283064	0.32223433889541797	-1.6468739013507883	0.7905952878210223	0.18680298661019026	-1.658412435192562	0.4516590500565877	0.19688919118836198	-1.6871312284922735	0.10558938660712	0.17910936455643983	-1.5292763069749185	0.010104787055545694	0.13191702970059702	-1.5442787781522567	0.02566082610886402	0.09837634486015806	-1.753705198077745	0.03740865566588703	0.1666165184152966	-1.6430268746133023	1.450454868751712	0.22317669462379977	-1.5678145035946924	1.7087087451004515	0.26418595402744627	-1.5101666926899135	1.5837400348481343	0.25645753431019214	-1.6925127711329737	1.3508259385293162	0.37238047014299325	-1.6809800429103101	1.0537646388943966	0.3993207057250324	-1.5912677440778153	0.859299531628501	0.46167263447990664	-1.6759473547116421	1.3361987768520205	0.10189049049418253	-1.6680737250636137	1.0365860973248502	0.1105812342506624	-1.5570805445488276	0.8558389986181784	0.07144056901992568
682	22.73333333333333	-1.6543047982554666	0.8167339555896546	0.25989534542438375	-1.6570636821002298	0.7955718870056281	0.34035329312501666	-1.6779070719102684	0.46411517428910315	0.30765485670754317	-1.7051124466287275	0.11507238722856218	0.3181510020240006	-1.5461848390101238	0.027653932764003006	0.3309171074187148	-1.57401418551745	0.02881037287198773	0.39216420764571336	-1.7445212243163026	0.052205586079070616	0.3221465183912477	-1.6467238124509778	0.7905174522642143	0.18694801492785146	-1.6608698733744065	0.4527843842956803	0.1998948022045888	-1.6851696580799964	0.10646085067506131	0.1805998226112133	-1.5290595671287759	0.010125317892385586	0.1324382915212062	-1.5423732946465991	0.026617507051712987	0.09925757886836524	-1.753430732075942	0.036508162539030546	0.16833171014078183	-1.6428801049390445	1.450431612040821	0.22313043100312846	-1.5643931119213152	1.7045495568864113	0.26373589197586217	-1.5099037896959389	1.5837369560304315	0.2573926229001399	-1.6920495691179729	1.3504653144312786	0.3722997527324936	-1.6804200281918638	1.0536951983750746	0.3991450286494107	-1.5910628071488837	0.8589687338892524	0.46157657687083464	-1.6769474325263245	1.3348910371211797	0.10981270037916825	-1.668487581220275	1.0369616710939151	0.11107624066356539	-1.5571439444711896	0.8557639505783777	0.07113416464301765
